<svg width="1074" height="1074" viewBox="0 0 1074 1074" fill="none" xmlns="http://www.w3.org/2000/svg">
<path d="M594.73 326.2C539.09 270.55 465.1 239.9 386.41 239.9C307.72 239.9 233.73 270.55 178.09 326.2C122.44 381.84 91.79 455.82 91.79 534.52C91.79 613.22 122.44 687.2 178.09 742.84C233.73 798.49 307.72 829.13 386.41 829.13C465.1 829.13 538.8 798.61 594.4 743.17H589.3C536.82 794.21 465.23 825.68 386.41 825.68C225.86 825.68 95.24 695.07 95.24 534.52C95.24 373.97 225.86 243.35 386.41 243.35C546.96 243.35 677.57 373.97 677.57 534.52C677.57 553.44 675.76 571.95 672.29 589.88H675.85C679.27 571.82 681.02 553.31 681.02 534.52C681.02 455.82 650.38 381.84 594.73 326.2Z" fill="url(#paint0_linear_871_4634)"/>
<path d="M585.68 335.86C594.517 335.86 601.68 328.696 601.68 319.86C601.68 311.023 594.517 303.86 585.68 303.86C576.844 303.86 569.68 311.023 569.68 319.86C569.68 328.696 576.844 335.86 585.68 335.86Z" fill="#F15D49"/>
<path d="M361.91 619.92C361.91 615.96 365.15 612.54 369.29 612.54C373.43 612.54 376.67 615.78 376.67 619.74C376.67 623.7 373.43 627.12 369.29 627.12C365.15 627.12 361.91 623.88 361.91 619.92ZM361.99 630.99L370.99 639.6V707.24H361.99V630.99Z" fill="#F15D49"/>
<path d="M391.33 660.25C391.33 632.34 411.32 612.54 438.32 612.54C465.32 612.54 485.31 632.34 485.31 660.25C485.31 688.16 465.33 707.96 438.32 707.96C411.31 707.96 391.33 688.15 391.33 660.25ZM476.14 660.25C476.14 636.66 459.94 620.64 438.33 620.64C416.72 620.64 400.52 636.67 400.52 660.25C400.52 683.83 416.72 699.86 438.33 699.86C459.94 699.86 476.14 683.84 476.14 660.25Z" fill="#F15D49"/>
<path d="M520.11 695.48L523.87 688.1C530.35 694.45 541.88 699.11 553.8 699.11C570.77 699.11 578.16 691.98 578.16 683.05C578.16 658.18 522.32 673.46 522.32 639.91C522.32 626.57 532.68 615.04 555.74 615.04C565.97 615.04 576.6 618.02 583.85 623.07L580.61 630.71C572.84 625.66 563.77 623.2 555.74 623.2C539.16 623.2 531.77 630.58 531.77 639.65C531.77 664.52 587.61 649.5 587.61 682.53C587.61 695.87 576.99 707.27 553.8 707.27C540.2 707.27 526.85 702.48 520.12 695.48H520.11Z" fill="white"/>
<path d="M600.42 661.15C600.42 634.72 620.63 615.03 648.09 615.03C675.55 615.03 695.63 634.59 695.63 661.15C695.63 687.71 675.29 707.27 648.09 707.27C620.89 707.27 600.42 687.58 600.42 661.15ZM686.05 661.15C686.05 639.52 669.86 623.58 648.09 623.58C626.32 623.58 609.87 639.51 609.87 661.15C609.87 682.79 626.19 698.72 648.09 698.72C669.99 698.72 686.05 682.79 686.05 661.15Z" fill="white"/>
<path d="M717.14 615.81H726.73V698.2H777.51V706.49H717.14V615.81Z" fill="white"/>
<path d="M850.56 682.26H800.04L789.16 706.49H779.19L820.65 615.81H830.11L871.57 706.49H861.47L850.59 682.26H850.56ZM847.06 674.49L825.3 625.78L803.54 674.49H847.07H847.06Z" fill="white"/>
<path d="M948.49 706.49L927.76 677.34C925.43 677.6 923.1 677.73 920.51 677.73H896.16V706.49H886.57V615.81H920.51C943.57 615.81 957.56 627.47 957.56 646.9C957.56 661.15 950.05 671.13 936.83 675.4L958.98 706.49H948.49ZM947.97 646.9C947.97 632.39 938.38 624.1 920.25 624.1H896.15V669.57H920.25C938.39 669.57 947.97 661.15 947.97 646.9Z" fill="white"/>
<path d="M630.972 751.208C629.585 751.208 628.303 750.983 627.124 750.532C625.963 750.064 624.949 749.414 624.082 748.582C623.233 747.733 622.565 746.745 622.08 745.618C621.595 744.491 621.352 743.252 621.352 741.9C621.352 740.548 621.595 739.309 622.08 738.182C622.565 737.055 623.241 736.076 624.108 735.244C624.975 734.395 625.989 733.745 627.15 733.294C628.329 732.826 629.611 732.592 630.998 732.592C632.402 732.592 633.693 732.835 634.872 733.32C636.068 733.788 637.082 734.49 637.914 735.426L636.224 737.064C635.531 736.336 634.751 735.799 633.884 735.452C633.017 735.088 632.09 734.906 631.102 734.906C630.079 734.906 629.126 735.079 628.242 735.426C627.375 735.773 626.621 736.258 625.98 736.882C625.339 737.506 624.836 738.251 624.472 739.118C624.125 739.967 623.952 740.895 623.952 741.9C623.952 742.905 624.125 743.841 624.472 744.708C624.836 745.557 625.339 746.294 625.98 746.918C626.621 747.542 627.375 748.027 628.242 748.374C629.126 748.721 630.079 748.894 631.102 748.894C632.09 748.894 633.017 748.721 633.884 748.374C634.751 748.01 635.531 747.455 636.224 746.71L637.914 748.348C637.082 749.284 636.068 749.995 634.872 750.48C633.693 750.965 632.393 751.208 630.972 751.208ZM641.496 751V732.8H644.07V746.84L654.834 732.8H657.226V751H654.678V736.986L643.888 751H641.496ZM671.038 751.208C669.652 751.208 668.369 750.983 667.19 750.532C666.029 750.064 665.015 749.414 664.148 748.582C663.299 747.733 662.632 746.745 662.146 745.618C661.661 744.491 661.418 743.252 661.418 741.9C661.418 740.548 661.661 739.309 662.146 738.182C662.632 737.055 663.308 736.076 664.174 735.244C665.041 734.395 666.055 733.745 667.216 733.294C668.395 732.826 669.678 732.592 671.064 732.592C672.468 732.592 673.76 732.835 674.938 733.32C676.134 733.788 677.148 734.49 677.98 735.426L676.29 737.064C675.597 736.336 674.817 735.799 673.95 735.452C673.084 735.088 672.156 734.906 671.168 734.906C670.146 734.906 669.192 735.079 668.308 735.426C667.442 735.773 666.688 736.258 666.046 736.882C665.405 737.506 664.902 738.251 664.538 739.118C664.192 739.967 664.018 740.895 664.018 741.9C664.018 742.905 664.192 743.841 664.538 744.708C664.902 745.557 665.405 746.294 666.046 746.918C666.688 747.542 667.442 748.027 668.308 748.374C669.192 748.721 670.146 748.894 671.168 748.894C672.156 748.894 673.084 748.721 673.95 748.374C674.817 748.01 675.597 747.455 676.29 746.71L677.98 748.348C677.148 749.284 676.134 749.995 674.938 750.48C673.76 750.965 672.46 751.208 671.038 751.208ZM685.077 751V734.386L685.727 735.062H678.863V732.8H693.865V735.062H687.001L687.625 734.386V751H685.077ZM699.391 740.652H708.751V742.862H699.391V740.652ZM699.625 748.738H710.233V751H697.025V732.8H709.869V735.062H699.625V748.738ZM714.316 751V732.8H716.448L724.612 746.554H723.468L731.528 732.8H733.66L733.686 751H731.19L731.164 736.726H731.762L724.586 748.79H723.39L716.162 736.726H716.812V751H714.316ZM747.334 739.144C749.483 739.144 751.138 739.629 752.3 740.6C753.461 741.553 754.042 742.983 754.042 744.89C754.042 746.901 753.409 748.426 752.144 749.466C750.896 750.489 749.136 751 746.866 751H739.352V732.8H741.926V739.144H747.334ZM746.762 748.946C748.27 748.946 749.422 748.608 750.22 747.932C751.034 747.256 751.442 746.259 751.442 744.942C751.442 743.659 751.043 742.715 750.246 742.108C749.448 741.501 748.287 741.198 746.762 741.198H741.926V748.946H746.762ZM756.928 751V732.8H759.502V751H756.928ZM775.874 751V734.386L776.524 735.062H769.66V732.8H784.662V735.062H777.798L778.422 734.386V751H775.874ZM790.188 740.652H799.548V742.862H790.188V740.652ZM790.422 748.738H801.03V751H787.822V732.8H800.666V735.062H790.422V748.738ZM804.255 751.208C803.995 751.208 803.735 751.191 803.475 751.156C803.215 751.121 802.929 751.069 802.617 751L802.799 748.686C803.077 748.755 803.354 748.79 803.631 748.79C804.394 748.79 805.001 748.487 805.451 747.88C805.902 747.273 806.231 746.355 806.439 745.124C806.665 743.893 806.812 742.342 806.881 740.47L807.167 732.8H819.985V751H817.437V734.386L818.061 735.062H808.831L809.403 734.36L809.195 740.392C809.143 742.195 809.022 743.772 808.831 745.124C808.641 746.476 808.355 747.603 807.973 748.504C807.592 749.405 807.098 750.081 806.491 750.532C805.902 750.983 805.157 751.208 804.255 751.208ZM828.02 740.652H837.38V742.862H828.02V740.652ZM828.254 748.738H838.862V751H825.654V732.8H838.498V735.062H828.254V748.738ZM842.945 751V732.8H845.077L853.241 746.554H852.097L860.157 732.8H862.289L862.315 751H859.819L859.793 736.726H860.391L853.215 748.79H852.019L844.791 736.726H845.441V751H842.945ZM870.346 740.652H879.706V742.862H870.346V740.652ZM870.58 748.738H881.188V751H867.98V732.8H880.824V735.062H870.58V748.738ZM888.99 751V734.386L889.64 735.062H882.776V732.8H897.778V735.062H890.914L891.538 734.386V751H888.99ZM900.938 751V732.8H908.036C909.63 732.8 910.991 733.051 912.118 733.554C913.244 734.057 914.111 734.785 914.718 735.738C915.324 736.691 915.628 737.827 915.628 739.144C915.628 740.461 915.324 741.597 914.718 742.55C914.111 743.486 913.244 744.214 912.118 744.734C910.991 745.237 909.63 745.488 908.036 745.488H902.368L903.538 744.266V751H900.938ZM903.538 744.526L902.368 743.226H907.958C909.622 743.226 910.878 742.871 911.728 742.16C912.594 741.449 913.028 740.444 913.028 739.144C913.028 737.844 912.594 736.839 911.728 736.128C910.878 735.417 909.622 735.062 907.958 735.062H902.368L903.538 733.762V744.526ZM919.244 751V732.8H921.818V746.84L932.582 732.8H934.974V751H932.426V736.986L921.636 751H919.244ZM940.648 751V732.8H943.222V746.84L953.986 732.8H956.378V751H953.83V736.986L943.04 751H940.648Z" fill="white"/>
<defs>
<linearGradient id="paint0_linear_871_4634" x1="244.588" y1="276.128" x2="528.221" y2="792.917" gradientUnits="userSpaceOnUse">
<stop stop-color="#F15D49"/>
<stop offset="1" stop-color="white"/>
</linearGradient>
</defs>
</svg>
