<svg width="32" height="32" viewBox="0 0 32 32" fill="none" xmlns="http://www.w3.org/2000/svg">
<path d="M27.7646 17.552C27.828 17.0453 27.8755 16.5387 27.8755 16.0003C27.8755 15.462 27.828 14.9553 27.7646 14.4487L31.1055 11.8362C31.4063 11.5987 31.4855 11.1712 31.2955 10.8228L28.1288 5.34449C27.9388 4.99616 27.5113 4.86949 27.163 4.99616L23.2205 6.57949C22.3971 5.94616 21.5105 5.42366 20.5446 5.02783L19.943 0.831992C19.8955 0.451992 19.563 0.166992 19.1671 0.166992H12.8338C12.438 0.166992 12.1055 0.451992 12.058 0.831992L11.4563 5.02783C10.4905 5.42366 9.60381 5.96199 8.78048 6.57949L4.83798 4.99616C4.47381 4.85366 4.06215 4.99616 3.87215 5.34449L0.705478 10.8228C0.499645 11.1712 0.594645 11.5987 0.895478 11.8362L4.23631 14.4487C4.17298 14.9553 4.12548 15.4778 4.12548 16.0003C4.12548 16.5228 4.17298 17.0453 4.23631 17.552L0.895478 20.1645C0.594645 20.402 0.515478 20.8295 0.705478 21.1778L3.87215 26.6562C4.06215 27.0045 4.48964 27.1312 4.83798 27.0045L8.78048 25.4212C9.60381 26.0545 10.4905 26.577 11.4563 26.9728L12.058 31.1687C12.1055 31.5487 12.438 31.8337 12.8338 31.8337H19.1671C19.563 31.8337 19.8955 31.5487 19.943 31.1687L20.5446 26.9728C21.5105 26.577 22.3971 26.0387 23.2205 25.4212L27.163 27.0045C27.5271 27.147 27.9388 27.0045 28.1288 26.6562L31.2955 21.1778C31.4855 20.8295 31.4063 20.402 31.1055 20.1645L27.7646 17.552V17.552ZM16.0005 21.542C12.9446 21.542 10.4588 19.0562 10.4588 16.0003C10.4588 12.9445 12.9446 10.4587 16.0005 10.4587C19.0563 10.4587 21.5421 12.9445 21.5421 16.0003C21.5421 19.0562 19.0563 21.542 16.0005 21.542Z" fill="#293B5F"/>
</svg>
