<svg width="41" height="31" viewBox="0 0 41 31" fill="none" xmlns="http://www.w3.org/2000/svg">
<rect width="41" height="31" rx="15.5" fill="#293B5F" fill-opacity="0.21"/>
<path d="M7.98714 17.3349L12.3414 21.6719C12.446 21.7759 12.5704 21.8584 12.7075 21.9147C12.8446 21.971 12.9917 22 13.1402 22C13.2887 22 13.4358 21.971 13.5729 21.9147C13.71 21.8584 13.8344 21.7759 13.939 21.6719C14.1486 21.4641 14.2662 21.1829 14.2662 20.8899C14.2662 20.5969 14.1486 20.3157 13.939 20.1079L9.9336 16.1258L32.8749 16.1258C33.1733 16.1258 33.4595 16.009 33.6705 15.801C33.8815 15.593 34 15.3108 34 15.0166C34 14.7225 33.8815 14.4403 33.6705 14.2323C33.4595 14.0243 33.1733 13.9074 32.8749 13.9074L9.86609 13.9074L13.939 9.90318C14.0445 9.80006 14.1282 9.67739 14.1853 9.54222C14.2424 9.40705 14.2719 9.26207 14.2719 9.11564C14.2719 8.96921 14.2424 8.82423 14.1853 8.68907C14.1282 8.5539 14.0445 8.43122 13.939 8.3281C13.8344 8.22414 13.71 8.14162 13.5729 8.08531C13.4358 8.02899 13.2887 8 13.1402 8C12.9917 8 12.8446 8.02899 12.7075 8.08531C12.5704 8.14162 12.446 8.22414 12.3414 8.3281L7.98714 12.6318C7.35504 13.2558 7 14.1015 7 14.9834C7 15.8652 7.35504 16.711 7.98714 17.3349Z" fill="#293B5F"/>
</svg>
