<svg width="20" height="20" viewBox="0 0 20 20" fill="none" xmlns="http://www.w3.org/2000/svg">
<path d="M6.67152 17.5H2.8457C2.65766 17.4995 2.50531 17.3472 2.50488 17.1592V2.84082C2.50535 2.65277 2.65766 2.50043 2.8457 2.5H6.67152C7.36188 2.5 7.92152 1.94035 7.92152 1.25C7.92152 0.559648 7.36188 0 6.67152 0H2.8457C1.2775 0.00183594 0.00671875 1.27266 0.00488281 2.84082V17.1591C0.00671875 18.7273 1.2775 19.9982 2.8457 20H6.67152C7.36188 20 7.92152 19.4404 7.92152 18.75C7.92152 18.0596 7.36188 17.5 6.67152 17.5Z" fill="#293B5F"/>
<path d="M18.903 7.34844L15.668 4.11594C15.1797 3.62785 14.3881 3.62805 13.9 4.11637C13.412 4.60469 13.4122 5.39621 13.9005 5.8843L16.7438 8.7268L5.41797 8.75012C4.72762 8.75012 4.16797 9.30977 4.16797 10.0001C4.16797 10.6905 4.72762 11.2501 5.41797 11.2501L16.7897 11.2293L13.9005 14.1185C13.4301 14.6238 13.4584 15.4147 13.9637 15.8851C14.4439 16.3322 15.1881 16.3318 15.668 15.8843L18.9005 12.6518C20.365 11.1873 20.365 8.81297 18.9005 7.34852L18.9005 7.34848L18.903 7.34844Z" fill="#293B5F"/>
</svg>
