<svg width="28" height="28" viewBox="0 0 28 28" fill="none" xmlns="http://www.w3.org/2000/svg">
<rect width="28" height="28" rx="8" fill="#293B5F"/>
<path d="M18.25 15.3906C18.25 15.5875 18.171 15.7762 18.0303 15.9154C17.8897 16.0546 17.6989 16.1328 17.5 16.1328H11.5C11.3011 16.1328 11.1103 16.0546 10.9697 15.9154C10.829 15.7762 10.75 15.5875 10.75 15.3906C10.75 15.1938 10.829 15.005 10.9697 14.8658C11.1103 14.7266 11.3011 14.6484 11.5 14.6484H17.5C17.6989 14.6484 17.8897 14.7266 18.0303 14.8658C18.171 15.005 18.25 15.1938 18.25 15.3906ZM15.25 17.6172H11.5C11.3011 17.6172 11.1103 17.6954 10.9697 17.8346C10.829 17.9738 10.75 18.1625 10.75 18.3594C10.75 18.5562 10.829 18.745 10.9697 18.8842C11.1103 19.0234 11.3011 19.1016 11.5 19.1016H15.25C15.4489 19.1016 15.6397 19.0234 15.7803 18.8842C15.921 18.745 16 18.5562 16 18.3594C16 18.1625 15.921 17.9738 15.7803 17.8346C15.6397 17.6954 15.4489 17.6172 15.25 17.6172ZM22 12.7818V19.1016C21.9988 20.0854 21.6033 21.0286 20.9003 21.7243C20.1973 22.42 19.2442 22.8113 18.25 22.8125H10.75C9.7558 22.8113 8.80267 22.42 8.09966 21.7243C7.39666 21.0286 7.00119 20.0854 7 19.1016V8.71095C7.00119 7.72711 7.39666 6.78391 8.09966 6.08823C8.80267 5.39255 9.7558 5.0012 10.75 5.00002H14.1362C14.826 4.99826 15.5092 5.13182 16.1464 5.39297C16.7836 5.65413 17.3622 6.0377 17.8487 6.5215L20.4617 9.10876C20.9509 9.58988 21.3388 10.1623 21.6028 10.7928C21.8668 11.4233 22.0018 12.0993 22 12.7818ZM16.7882 7.57095C16.5522 7.3447 16.2872 7.15008 16 6.99205V10.1953C16 10.3922 16.079 10.5809 16.2197 10.7201C16.3603 10.8593 16.5511 10.9375 16.75 10.9375H19.987C19.8272 10.6534 19.6303 10.3914 19.4012 10.1582L16.7882 7.57095ZM20.5 12.7818C20.5 12.6594 20.476 12.5421 20.4647 12.4219H16.75C16.1533 12.4219 15.581 12.1873 15.159 11.7697C14.737 11.3522 14.5 10.7858 14.5 10.1953V6.51927C14.3785 6.50814 14.2592 6.48439 14.1362 6.48439H10.75C10.1533 6.48439 9.58096 6.71897 9.15901 7.13654C8.73705 7.5541 8.5 8.12043 8.5 8.71095V19.1016C8.5 19.6921 8.73705 20.2584 9.15901 20.676C9.58096 21.0935 10.1533 21.3281 10.75 21.3281H18.25C18.8467 21.3281 19.419 21.0935 19.841 20.676C20.2629 20.2584 20.5 19.6921 20.5 19.1016V12.7818Z" fill="#F8F6F4"/>
</svg>
