<svg width="24" height="14" viewBox="0 0 24 14" fill="none" xmlns="http://www.w3.org/2000/svg">
<path fill-rule="evenodd" clip-rule="evenodd" d="M10.8587 3C10.8587 4.66 9.41304 6 7.6087 6C5.80435 6 4.34783 4.66 4.34783 3C4.34783 1.34 5.80435 0 7.6087 0C9.41304 0 10.8587 1.34 10.8587 3ZM19.5543 3C19.5543 4.66 18.1087 6 16.3043 6C14.5 6 13.0435 4.66 13.0435 3C13.0435 1.34 14.5 0 16.3043 0C18.1087 0 19.5543 1.34 19.5543 3ZM7.6087 8C5.07609 8 0 9.17 0 11.5V13C0 13.55 0.48913 14 1.08696 14H14.1304C14.7283 14 15.2174 13.55 15.2174 13V11.5C15.2174 9.17 10.1413 8 7.6087 8ZM15.25 8.05C15.6304 8.02 15.9891 8 16.3043 8C18.837 8 23.913 9.17 23.913 11.5V13C23.913 13.55 23.4239 14 22.8261 14H17.1957C17.3152 13.69 17.3913 13.35 17.3913 13V11.5C17.3913 10.03 16.5326 8.92 15.2935 8.09C15.2902 8.08697 15.2869 8.08303 15.2833 8.07872C15.275 8.06881 15.2652 8.05697 15.25 8.05Z" fill="#F8F6F4"/>
</svg>
