<svg width="24" height="14" viewBox="0 0 24 14" fill="none" xmlns="http://www.w3.org/2000/svg">
<path fill-rule="evenodd" clip-rule="evenodd" d="M10.9456 3C10.9456 4.66 9.49996 6 7.69561 6C5.89126 6 4.43474 4.66 4.43474 3C4.43474 1.34 5.89126 0 7.69561 0C9.49996 0 10.9456 1.34 10.9456 3ZM19.6413 3C19.6413 4.66 18.1956 6 16.3913 6C14.5869 6 13.1304 4.66 13.1304 3C13.1304 1.34 14.5869 0 16.3913 0C18.1956 0 19.6413 1.34 19.6413 3ZM7.69561 8C5.163 8 0.0869141 9.17 0.0869141 11.5V13C0.0869141 13.55 0.576045 14 1.17387 14H14.2174C14.8152 14 15.3043 13.55 15.3043 13V11.5C15.3043 9.17 10.2282 8 7.69561 8ZM15.3369 8.05C15.7173 8.02 16.076 8 16.3913 8C18.9239 8 24 9.17 24 11.5V13C24 13.55 23.5108 14 22.913 14H17.2826C17.4021 13.69 17.4782 13.35 17.4782 13V11.5C17.4782 10.03 16.6195 8.92 15.3804 8.09C15.3771 8.08697 15.3738 8.08303 15.3702 8.07872C15.3619 8.06881 15.3521 8.05697 15.3369 8.05Z" fill="#293B5F"/>
</svg>
