<svg width="20" height="20" viewBox="0 0 20 20" fill="none" xmlns="http://www.w3.org/2000/svg">
<path d="M6.66664 17.5H2.84082C2.65277 17.4995 2.50043 17.3472 2.5 17.1592V2.84082C2.50047 2.65277 2.65277 2.50043 2.84082 2.5H6.66664C7.35699 2.5 7.91664 1.94035 7.91664 1.25C7.91664 0.559648 7.35699 0 6.66664 0H2.84082C1.27262 0.00183594 0.00183594 1.27266 0 2.84082V17.1591C0.00183594 18.7273 1.27262 19.9982 2.84082 20H6.66664C7.35699 20 7.91664 19.4404 7.91664 18.75C7.91664 18.0596 7.35699 17.5 6.66664 17.5Z" fill="#F8F6F4"/>
<path d="M18.8981 7.34844L15.6631 4.11594C15.1748 3.62785 14.3832 3.62805 13.8952 4.11637C13.4071 4.60469 13.4073 5.39621 13.8956 5.8843L16.7389 8.7268L5.41309 8.75012C4.72273 8.75012 4.16309 9.30977 4.16309 10.0001C4.16309 10.6905 4.72273 11.2501 5.41309 11.2501L16.7848 11.2293L13.8956 14.1185C13.4252 14.6238 13.4535 15.4147 13.9588 15.8851C14.4391 16.3322 15.1832 16.3318 15.6631 15.8843L18.8956 12.6518C20.3601 11.1873 20.3601 8.81297 18.8956 7.34852L18.8956 7.34848L18.8981 7.34844Z" fill="#F8F6F4"/>
</svg>
