<svg width="41" height="41" viewBox="0 0 41 41" fill="none" xmlns="http://www.w3.org/2000/svg">
<rect x="0.5" y="0.5" width="40" height="40" rx="11.5" stroke="#293B5F"/>
<path d="M13.4628 28.4763L17.7698 32.8848C18.5026 33.6006 19.4768 34 20.4898 34C21.5028 34 22.477 33.6006 23.2098 32.8848L27.5168 28.4763C27.8261 28.1599 27.9999 27.7308 28 27.2832C28.0001 26.8357 27.8265 26.4064 27.5174 26.0899C27.2083 25.7733 26.789 25.5955 26.3517 25.5953C25.9145 25.5952 25.4951 25.7729 25.1859 26.0893L22.1295 29.2165L22.1042 8.68733C22.1042 8.23982 21.9306 7.81064 21.6214 7.49421C21.3122 7.17777 20.8929 7 20.4557 7C20.0185 7 19.5992 7.17777 19.2901 7.49421C18.9809 7.81064 18.8072 8.23982 18.8072 8.68733L18.8325 29.1951L15.7937 26.0893C15.4828 25.782 15.0664 25.6119 14.6342 25.6157C14.202 25.6196 13.7885 25.797 13.4828 26.1099C13.1772 26.4227 13.0038 26.8459 13.0001 27.2883C12.9963 27.7307 13.1625 28.1581 13.4628 28.4763Z" fill="#293B5F"/>
</svg>
