<svg width="906" height="591" viewBox="0 0 906 591" fill="none" xmlns="http://www.w3.org/2000/svg">
<g clip-path="url(#clip0_873_4702)">
<path d="M503.73 87.1999C448.09 31.5499 374.1 0.899902 295.41 0.899902C216.72 0.899902 142.73 31.5499 87.09 87.1999C31.44 142.84 0.790039 216.82 0.790039 295.52C0.790039 374.22 31.44 448.2 87.09 503.84C142.73 559.49 216.72 590.13 295.41 590.13C374.1 590.13 447.8 559.61 503.4 504.17H498.3C445.82 555.21 374.23 586.68 295.41 586.68C134.86 586.68 4.24004 456.07 4.24004 295.52C4.24004 134.97 134.86 4.34991 295.41 4.34991C455.96 4.34991 586.57 134.97 586.57 295.52C586.57 314.44 584.76 332.95 581.29 350.88H584.85C588.27 332.82 590.02 314.31 590.02 295.52C590.02 216.82 559.38 142.84 503.73 87.1999Z" fill="url(#paint0_linear_873_4702)"/>
<path d="M494.68 96.8599C503.516 96.8599 510.68 89.6964 510.68 80.8599C510.68 72.0233 503.516 64.8599 494.68 64.8599C485.843 64.8599 478.68 72.0233 478.68 80.8599C478.68 89.6964 485.843 96.8599 494.68 96.8599Z" fill="#F15D49"/>
<path d="M270.91 380.92C270.91 376.96 274.15 373.54 278.29 373.54C282.43 373.54 285.67 376.78 285.67 380.74C285.67 384.7 282.43 388.12 278.29 388.12C274.15 388.12 270.91 384.88 270.91 380.92ZM270.99 391.99L279.99 400.6V468.24H270.99V391.99Z" fill="#F15D49"/>
<path d="M300.33 421.25C300.33 393.34 320.32 373.54 347.32 373.54C374.32 373.54 394.31 393.34 394.31 421.25C394.31 449.16 374.33 468.96 347.32 468.96C320.31 468.96 300.33 449.15 300.33 421.25ZM385.14 421.25C385.14 397.66 368.94 381.64 347.33 381.64C325.72 381.64 309.52 397.67 309.52 421.25C309.52 444.83 325.72 460.86 347.33 460.86C368.94 460.86 385.14 444.84 385.14 421.25Z" fill="#F15D49"/>
<path d="M430.53 422.15C430.53 395.59 450.74 376.03 478.07 376.03C491.28 376.03 503.2 380.43 511.23 389.24L505.14 395.33C497.76 387.82 488.69 384.58 478.32 384.58C456.43 384.58 439.97 400.64 439.97 422.15C439.97 443.66 456.42 459.72 478.32 459.72C488.68 459.72 497.75 456.48 505.14 448.84L511.23 454.93C503.2 463.74 491.28 468.27 477.94 468.27C450.74 468.27 430.53 448.71 430.53 422.15Z" fill="white"/>
<path d="M521.21 422.15C521.21 395.72 541.42 376.03 568.88 376.03C596.34 376.03 616.42 395.59 616.42 422.15C616.42 448.71 596.08 468.27 568.88 468.27C541.68 468.27 521.21 448.58 521.21 422.15ZM606.84 422.15C606.84 400.52 590.65 384.58 568.88 384.58C547.11 384.58 530.66 400.51 530.66 422.15C530.66 443.79 546.98 459.72 568.88 459.72C590.78 459.72 606.84 443.79 606.84 422.15Z" fill="white"/>
<path d="M707.881 376.81V467.49H698.421V385.1H654.631L653.591 415.41C652.291 451.68 646.591 468.4 630.141 468.4C627.811 468.4 625.611 468.14 622.891 467.49L623.671 458.94C625.351 459.33 626.521 459.46 627.951 459.46C639.481 459.46 643.881 446.25 645.051 415.67L646.341 376.81H707.881Z" fill="white"/>
<path d="M796.49 443.26H745.97L735.09 467.49H725.12L766.58 376.81H776.04L817.5 467.49H807.4L796.52 443.26H796.49ZM792.99 435.49L771.23 386.78L749.47 435.49H793H792.99Z" fill="white"/>
<path d="M905.82 407.9C905.82 427.2 891.83 438.86 868.77 438.86H844.42V467.49H834.83V376.81H868.77C891.83 376.81 905.82 388.47 905.82 407.9ZM896.23 407.9C896.23 393.39 886.64 385.1 868.51 385.1H844.41V430.44H868.51C886.65 430.44 896.23 422.15 896.23 407.9Z" fill="white"/>
<path d="M539.238 511.232C537.691 511.232 536.261 510.981 534.946 510.478C533.651 509.956 532.52 509.231 531.553 508.303C530.606 507.356 529.861 506.254 529.32 504.997C528.779 503.74 528.508 502.358 528.508 500.85C528.508 499.342 528.779 497.96 529.32 496.703C529.861 495.446 530.615 494.354 531.582 493.426C532.549 492.479 533.68 491.754 534.975 491.251C536.29 490.729 537.72 490.468 539.267 490.468C540.833 490.468 542.273 490.739 543.588 491.28C544.922 491.802 546.053 492.585 546.981 493.629L545.096 495.456C544.323 494.644 543.453 494.045 542.486 493.658C541.519 493.252 540.485 493.049 539.383 493.049C538.242 493.049 537.179 493.242 536.193 493.629C535.226 494.016 534.385 494.557 533.67 495.253C532.955 495.949 532.394 496.78 531.988 497.747C531.601 498.694 531.408 499.729 531.408 500.85C531.408 501.971 531.601 503.015 531.988 503.982C532.394 504.929 532.955 505.751 533.67 506.447C534.385 507.143 535.226 507.684 536.193 508.071C537.179 508.458 538.242 508.651 539.383 508.651C540.485 508.651 541.519 508.458 542.486 508.071C543.453 507.665 544.323 507.046 545.096 506.215L546.981 508.042C546.053 509.086 544.922 509.879 543.588 510.42C542.273 510.961 540.823 511.232 539.238 511.232ZM550.976 511V490.7H553.847V506.36L565.853 490.7H568.521V511H565.679V495.369L553.644 511H550.976ZM583.927 511.232C582.381 511.232 580.95 510.981 579.635 510.478C578.34 509.956 577.209 509.231 576.242 508.303C575.295 507.356 574.551 506.254 574.009 504.997C573.468 503.74 573.197 502.358 573.197 500.85C573.197 499.342 573.468 497.96 574.009 496.703C574.551 495.446 575.305 494.354 576.271 493.426C577.238 492.479 578.369 491.754 579.664 491.251C580.979 490.729 582.41 490.468 583.956 490.468C585.522 490.468 586.963 490.739 588.277 491.28C589.611 491.802 590.742 492.585 591.67 493.629L589.785 495.456C589.012 494.644 588.142 494.045 587.175 493.658C586.209 493.252 585.174 493.049 584.072 493.049C582.932 493.049 581.868 493.242 580.882 493.629C579.916 494.016 579.075 494.557 578.359 495.253C577.644 495.949 577.083 496.78 576.677 497.747C576.291 498.694 576.097 499.729 576.097 500.85C576.097 501.971 576.291 503.015 576.677 503.982C577.083 504.929 577.644 505.751 578.359 506.447C579.075 507.143 579.916 507.684 580.882 508.071C581.868 508.458 582.932 508.651 584.072 508.651C585.174 508.651 586.209 508.458 587.175 508.071C588.142 507.665 589.012 507.046 589.785 506.215L591.67 508.042C590.742 509.086 589.611 509.879 588.277 510.42C586.963 510.961 585.513 511.232 583.927 511.232ZM599.586 511V492.469L600.311 493.223H592.655V490.7H609.388V493.223H601.732L602.428 492.469V511H599.586ZM615.552 499.458H625.992V501.923H615.552V499.458ZM615.813 508.477H627.645V511H612.913V490.7H627.239V493.223H615.813V508.477ZM632.199 511V490.7H634.577L643.683 506.041H642.407L651.397 490.7H653.775L653.804 511H651.02L650.991 495.079H651.658L643.654 508.535H642.32L634.258 495.079H634.983V511H632.199ZM669.026 497.776C671.423 497.776 673.27 498.317 674.565 499.4C675.86 500.463 676.508 502.058 676.508 504.185C676.508 506.428 675.802 508.129 674.391 509.289C672.999 510.43 671.037 511 668.504 511H660.123V490.7H662.994V497.776H669.026ZM668.388 508.709C670.07 508.709 671.356 508.332 672.245 507.578C673.154 506.824 673.608 505.712 673.608 504.243C673.608 502.812 673.163 501.759 672.274 501.082C671.385 500.405 670.089 500.067 668.388 500.067H662.994V508.709H668.388ZM679.727 511V490.7H682.598V511H679.727ZM700.86 511V492.469L701.585 493.223H693.929V490.7H710.662V493.223H703.006L703.702 492.469V511H700.86ZM716.825 499.458H727.265V501.923H716.825V499.458ZM717.086 508.477H728.918V511H714.186V490.7H728.512V493.223H717.086V508.477ZM732.516 511.232C732.226 511.232 731.936 511.213 731.646 511.174C731.356 511.135 731.037 511.077 730.689 511L730.892 508.419C731.201 508.496 731.51 508.535 731.82 508.535C732.67 508.535 733.347 508.197 733.85 507.52C734.352 506.843 734.72 505.819 734.952 504.446C735.203 503.073 735.367 501.343 735.445 499.255L735.764 490.7H750.061V511H747.219V492.469L747.915 493.223H737.62L738.258 492.44L738.026 499.168C737.968 501.179 737.832 502.938 737.62 504.446C737.407 505.954 737.088 507.211 736.663 508.216C736.237 509.221 735.686 509.975 735.01 510.478C734.352 510.981 733.521 511.232 732.516 511.232ZM759.023 499.458H769.463V501.923H759.023V499.458ZM759.284 508.477H771.116V511H756.384V490.7H770.71V493.223H759.284V508.477ZM775.67 511V490.7H778.048L787.154 506.041H785.878L794.868 490.7H797.246L797.275 511H794.491L794.462 495.079H795.129L787.125 508.535H785.791L777.729 495.079H778.454V511H775.67ZM806.233 499.458H816.673V501.923H806.233V499.458ZM806.494 508.477H818.326V511H803.594V490.7H817.92V493.223H806.494V508.477ZM827.027 511V492.469L827.752 493.223H820.096V490.7H836.829V493.223H829.173L829.869 492.469V511H827.027ZM840.353 511V490.7H848.27C850.049 490.7 851.567 490.98 852.823 491.541C854.08 492.102 855.047 492.914 855.723 493.977C856.4 495.04 856.738 496.307 856.738 497.776C856.738 499.245 856.4 500.512 855.723 501.575C855.047 502.619 854.08 503.431 852.823 504.011C851.567 504.572 850.049 504.852 848.27 504.852H841.948L843.253 503.489V511H840.353ZM843.253 503.779L841.948 502.329H848.183C850.039 502.329 851.441 501.933 852.388 501.14C853.355 500.347 853.838 499.226 853.838 497.776C853.838 496.326 853.355 495.205 852.388 494.412C851.441 493.619 850.039 493.223 848.183 493.223H841.948L843.253 491.773V503.779ZM860.772 511V490.7H863.643V506.36L875.649 490.7H878.317V511H875.475V495.369L863.44 511H860.772ZM884.646 511V490.7H887.517V506.36L899.523 490.7H902.191V511H899.349V495.369L887.314 511H884.646Z" fill="white"/>
</g>
<defs>
<linearGradient id="paint0_linear_873_4702" x1="153.588" y1="37.1287" x2="437.221" y2="553.908" gradientUnits="userSpaceOnUse">
<stop stop-color="#F15D49"/>
<stop offset="1" stop-color="white"/>
</linearGradient>
<clipPath id="clip0_873_4702">
<rect width="906" height="591" fill="white"/>
</clipPath>
</defs>
</svg>
