<svg width="14" height="19" viewBox="0 0 14 19" fill="none" xmlns="http://www.w3.org/2000/svg">
<path d="M7.00001 0C6.54001 0 6.07001 0.0400001 5.60001 0.14C2.84001 0.67 0.64001 2.9 0.12001 5.66C-0.35999 8.27 0.600011 10.67 2.34001 12.22C2.77001 12.6 3.00001 13.13 3.00001 13.69V16C3.00001 17.1 3.90001 18 5.00001 18H5.28001C5.63001 18.6 6.26001 19 7.00001 19C7.74001 19 8.38001 18.6 8.72001 18H9.00001C10.1 18 11 17.1 11 16V13.69C11 13.14 11.22 12.6 11.64 12.23C13.09 10.95 14 9.08 14 7C14 3.13 10.87 0 7.00001 0ZM7.50001 11H6.50001V8.41L4.67001 6.59L5.38001 5.88L7.00001 7.5L8.62001 5.88L9.33001 6.59L7.50001 8.42V11ZM8.50001 16C8.49001 16 8.48001 15.99 8.47001 15.99V16H5.53001V15.99C5.52001 15.99 5.51001 16 5.50001 16C5.22001 16 5.00001 15.78 5.00001 15.5C5.00001 15.22 5.22001 15 5.50001 15C5.51001 15 5.52001 15.01 5.53001 15.01V15H8.47001V15.01C8.48001 15.01 8.49001 15 8.50001 15C8.78001 15 9.00001 15.22 9.00001 15.5C9.00001 15.78 8.78001 16 8.50001 16ZM8.50001 14H5.50001C5.22001 14 5.00001 13.78 5.00001 13.5C5.00001 13.22 5.22001 13 5.50001 13H8.50001C8.78001 13 9.00001 13.22 9.00001 13.5C9.00001 13.78 8.78001 14 8.50001 14Z" fill="#F8F6F4"/>
</svg>
