<svg width="61" height="61" viewBox="0 0 61 61" fill="none" xmlns="http://www.w3.org/2000/svg">
<path d="M30 30C36.9063 30 42.5 24.4063 42.5 17.5C42.5 10.5937 36.9063 5 30 5C23.0937 5 17.5 10.5937 17.5 17.5C17.5 24.4063 23.0937 30 30 30ZM30 36.25C21.6562 36.25 5 40.4375 5 48.75V55H55V48.75C55 40.4375 38.3438 36.25 30 36.25Z" fill="#717171"/>
<path d="M30 30C36.9063 30 42.5 24.4063 42.5 17.5C42.5 10.5937 36.9063 5 30 5C23.0937 5 17.5 10.5937 17.5 17.5C17.5 24.4063 23.0937 30 30 30ZM30 36.25C21.6562 36.25 5 40.4375 5 48.75V55H55V48.75C55 40.4375 38.3438 36.25 30 36.25Z" fill="#F8F6F4"/>
</svg>
