<svg width="18" height="18" viewBox="0 0 18 18" fill="none" xmlns="http://www.w3.org/2000/svg">
<g clip-path="url(#clip0_167_5391)">
<path d="M17.9655 4.15625L11.652 10.4698C10.948 11.1719 9.99431 11.5663 9 11.5663C8.00569 11.5663 7.05197 11.1719 6.348 10.4698L0.0345 4.15625C0.024 4.27475 0 4.382 0 4.49975V13.4998C0.00119089 14.4939 0.396661 15.4471 1.09966 16.1501C1.80267 16.8531 2.7558 17.2486 3.75 17.2498H14.25C15.2442 17.2486 16.1973 16.8531 16.9003 16.1501C17.6033 15.4471 17.9988 14.4939 18 13.4998V4.49975C18 4.382 17.976 4.27475 17.9655 4.15625Z" fill="#F8F6F4"/>
<path d="M10.5916 9.4095L17.4421 2.55825C17.1102 2.00799 16.6422 1.55253 16.0831 1.2358C15.524 0.919067 14.8927 0.751755 14.2501 0.75H3.75011C3.10752 0.751755 2.47623 0.919067 1.91713 1.2358C1.35802 1.55253 0.889964 2.00799 0.558105 2.55825L7.40861 9.4095C7.83128 9.83048 8.40354 10.0669 9.00011 10.0669C9.59667 10.0669 10.1689 9.83048 10.5916 9.4095Z" fill="#F8F6F4"/>
</g>
<defs>
<clipPath id="clip0_167_5391">
<rect width="18" height="18" fill="white"/>
</clipPath>
</defs>
</svg>
