<svg width="18" height="18" viewBox="0 0 18 18" fill="none" xmlns="http://www.w3.org/2000/svg">
<g clip-path="url(#clip0_167_6936)">
<path d="M16.875 15.75H4.125C3.62772 15.75 3.15081 15.5525 2.79917 15.2008C2.44754 14.8492 2.25 14.3723 2.25 13.875V1.125C2.25 0.826631 2.13147 0.540483 1.9205 0.329505C1.70952 0.118526 1.42337 0 1.125 0C0.826631 0 0.540483 0.118526 0.329505 0.329505C0.118526 0.540483 0 0.826631 0 1.125L0 13.875C0.00119113 14.9687 0.436171 16.0172 1.2095 16.7905C1.98283 17.5638 3.03135 17.9988 4.125 18H16.875C17.1734 18 17.4595 17.8815 17.6705 17.6705C17.8815 17.4595 18 17.1734 18 16.875C18 16.5766 17.8815 16.2905 17.6705 16.0795C17.4595 15.8685 17.1734 15.75 16.875 15.75Z" fill="#293B5F"/>
<path d="M16.875 2.98199H14.5605C14.4122 2.98203 14.2672 3.02603 14.1439 3.10844C14.0206 3.19086 13.9245 3.30798 13.8678 3.445C13.811 3.58203 13.7961 3.7328 13.8251 3.87827C13.854 4.02373 13.9254 4.15736 14.0303 4.26224L14.58 4.81124L11.8898 7.5C11.8549 7.53492 11.8135 7.56262 11.768 7.58153C11.7224 7.60043 11.6736 7.61017 11.6243 7.61017C11.5749 7.61017 11.5261 7.60043 11.4805 7.58153C11.435 7.56262 11.3936 7.53492 11.3588 7.5L11.2313 7.3725C10.7313 6.89487 10.0665 6.62835 9.37501 6.62835C8.68357 6.62835 8.01873 6.89487 7.51876 7.3725L4.44376 10.4475C4.33631 10.5513 4.25061 10.6754 4.19165 10.8127C4.13269 10.9499 4.10165 11.0975 4.10035 11.2469C4.09906 11.3963 4.12752 11.5444 4.18409 11.6827C4.24065 11.821 4.32419 11.9466 4.42982 12.0522C4.53545 12.1578 4.66105 12.2414 4.79931 12.2979C4.93757 12.3545 5.08571 12.3829 5.23509 12.3817C5.38446 12.3804 5.53209 12.3493 5.66934 12.2904C5.8066 12.2314 5.93073 12.1457 6.03451 12.0382L9.10951 8.96325C9.14435 8.92832 9.18573 8.90062 9.23129 8.88171C9.27684 8.86281 9.32569 8.85307 9.37501 8.85307C9.42434 8.85307 9.47318 8.86281 9.51874 8.88171C9.56429 8.90062 9.60568 8.92832 9.64051 8.96325L9.76801 9.09075C10.2682 9.56803 10.9329 9.83432 11.6243 9.83432C12.3156 9.83432 12.9804 9.56803 13.4805 9.09075L16.17 6.402L16.719 6.95175C16.8239 7.05686 16.9575 7.12849 17.1031 7.15756C17.2487 7.18664 17.3997 7.17185 17.5369 7.11506C17.674 7.05828 17.7913 6.96206 17.8737 6.83859C17.9562 6.71512 18.0001 6.56996 18 6.4215V4.10699C18 3.80863 17.8815 3.52248 17.6705 3.3115C17.4595 3.10052 17.1734 2.98199 16.875 2.98199Z" fill="#293B5F"/>
</g>
<defs>
<clipPath id="clip0_167_6936">
<rect width="18" height="18" fill="white"/>
</clipPath>
</defs>
</svg>
