<svg width="21" height="21" viewBox="0 0 21 21" fill="none" xmlns="http://www.w3.org/2000/svg">
<g clip-path="url(#clip0_140_2052)">
<path d="M12.25 6.12516C12.25 6.47128 12.1474 6.80962 11.9551 7.09741C11.7628 7.3852 11.4895 7.6095 11.1697 7.74195C10.8499 7.87441 10.4981 7.90906 10.1586 7.84154C9.81913 7.77401 9.50731 7.60734 9.26257 7.3626C9.01783 7.11786 8.85115 6.80604 8.78363 6.46657C8.71611 6.1271 8.75076 5.77524 8.88321 5.45547C9.01567 5.13569 9.23997 4.86238 9.52776 4.67009C9.81554 4.4778 10.1539 4.37516 10.5 4.37516C10.9641 4.37516 11.4093 4.55954 11.7374 4.88772C12.0656 5.21591 12.25 5.66103 12.25 6.12516ZM14.8313 10.4625L10.5 14.7002L6.17576 10.4687C5.31754 9.61313 4.73239 8.52225 4.49434 7.33405C4.25629 6.14586 4.37605 4.91375 4.83846 3.79364C5.30087 2.67353 6.08514 1.71575 7.09205 1.04151C8.09896 0.367258 9.28324 0.00684141 10.495 0.00586138C11.7069 0.00488135 12.8917 0.363382 13.8997 1.036C14.9077 1.70862 15.6935 2.66513 16.1578 3.78449C16.622 4.90385 16.7437 6.13576 16.5076 7.32434C16.2715 8.51292 15.6881 9.60562 14.8313 10.4625ZM14 6.12516C14 5.43293 13.7947 4.75624 13.4101 4.18067C13.0256 3.60509 12.4789 3.15649 11.8394 2.89158C11.1999 2.62668 10.4961 2.55737 9.81719 2.69241C9.13826 2.82746 8.51461 3.1608 8.02513 3.65029C7.53565 4.13977 7.2023 4.76341 7.06726 5.44235C6.93221 6.12128 7.00152 6.82501 7.26643 7.46455C7.53133 8.1041 7.97994 8.65072 8.55551 9.03531C9.13108 9.41989 9.80777 9.62516 10.5 9.62516C11.4283 9.62516 12.3185 9.25641 12.9749 8.60004C13.6313 7.94366 14 7.05342 14 6.12516ZM19.1336 9.28654L17.878 8.86654C17.4872 9.93115 16.8698 10.8982 16.0685 11.7007L10.5 17.1502L4.9525 11.7252C3.89944 10.676 3.16524 9.3499 2.83501 7.90054C2.47428 7.86733 2.11059 7.90997 1.76732 8.02569C1.42405 8.14142 1.10879 8.32768 0.841792 8.57251C0.574796 8.81734 0.361974 9.11532 0.217002 9.4473C0.0720294 9.77928 -0.00188617 10.1379 4.87154e-06 10.5002V19.0332L6.98513 21.029L14.0026 19.279L21.0026 20.9835V11.7978C21.0023 11.2338 20.8203 10.685 20.4837 10.2326C20.1471 9.7801 19.6737 9.44895 19.1336 9.28654Z" fill="#293B5F"/>
</g>
<defs>
<clipPath id="clip0_140_2052">
<rect width="21" height="21" fill="white"/>
</clipPath>
</defs>
</svg>
