<svg width="22" height="18" viewBox="0 0 22 18" fill="none" xmlns="http://www.w3.org/2000/svg">
<path fill-rule="evenodd" clip-rule="evenodd" d="M19.7391 0H2.34783C1.15218 0 0.17392 0.9 0.17392 2V16C0.17392 17.1 1.15218 18 2.34783 18H19.7391C20.9348 18 21.9131 17.1 21.9131 16V2C21.9131 0.9 20.9348 0 19.7391 0ZM7.78262 14H4.52175C3.92392 14 3.43479 13.55 3.43479 13C3.43479 12.45 3.92392 12 4.52175 12H7.78262C8.38044 12 8.86957 12.45 8.86957 13C8.86957 13.55 8.38044 14 7.78262 14ZM7.78262 10H4.52175C3.92392 10 3.43479 9.55 3.43479 9C3.43479 8.45 3.92392 8 4.52175 8H7.78262C8.38044 8 8.86957 8.45 8.86957 9C8.86957 9.55 8.38044 10 7.78262 10ZM7.78262 6H4.52175C3.92392 6 3.43479 5.55 3.43479 5C3.43479 4.45 3.92392 4 4.52175 4H7.78262C8.38044 4 8.86957 4.45 8.86957 5C8.86957 5.55 8.38044 6 7.78262 6ZM18.3261 8.12L14.8804 11.29C14.4565 11.68 13.7609 11.68 13.337 11.29L11.8044 9.87C11.3804 9.48 11.3804 8.85 11.8044 8.46C12.2283 8.07 12.9131 8.07 13.337 8.46L14.1087 9.17L16.7935 6.7C17.2174 6.31 17.9022 6.31 18.3261 6.7L18.337 6.71C18.75 7.1 18.75 7.74 18.3261 8.12Z" fill="#F8F6F4"/>
</svg>
